<svg width="64" height="64" viewBox="0 0 64 64" fill="none" xmlns="http://www.w3.org/2000/svg">
<circle cx="32" cy="32" r="31.1579" stroke="#0F4C81" stroke-width="1.68421"/>
<path fill-rule="evenodd" clip-rule="evenodd" d="M43.4883 20.2106C42.9617 20.2106 42.4567 20.4198 42.0844 20.7921L29.5867 33.2897L28.6508 37.0334L32.3945 36.0975L44.8922 23.5999C45.2645 23.2275 45.4737 22.7225 45.4737 22.196C45.4737 21.6694 45.2645 21.1644 44.8922 20.7921C44.5198 20.4198 44.0148 20.2106 43.4883 20.2106ZM40.8934 19.6012C41.5816 18.913 42.515 18.5264 43.4883 18.5264C44.4615 18.5264 45.3949 18.913 46.0831 19.6012C46.7713 20.2894 47.1579 21.2227 47.1579 22.196C47.1579 23.1692 46.7713 24.1026 46.0831 24.7908L33.4205 37.4534C33.3126 37.5613 33.1774 37.6378 33.0293 37.6749L27.6977 39.0078C27.4107 39.0795 27.1071 38.9954 26.898 38.7863C26.6888 38.5771 26.6047 38.2735 26.6765 37.9866L28.0094 32.655C28.0464 32.5069 28.123 32.3717 28.2309 32.2637L40.8934 19.6012ZM19.6814 22.3813C20.3392 21.7234 21.2315 21.3538 22.1618 21.3538H31.4921C31.9572 21.3538 32.3343 21.7309 32.3343 22.1959C32.3343 22.661 31.9572 23.038 31.4921 23.038H22.1618C21.6782 23.038 21.2143 23.2302 20.8723 23.5722C20.5303 23.9142 20.3381 24.3781 20.3381 24.8617V43.5224C20.3381 44.006 20.5303 44.4699 20.8723 44.8119C21.2143 45.1539 21.6782 45.3461 22.1618 45.3461H40.8225C41.3061 45.3461 41.77 45.1539 42.112 44.8119C42.454 44.4699 42.6462 44.006 42.6462 43.5224V34.1921C42.6462 33.727 43.0232 33.3499 43.4883 33.3499C43.9533 33.3499 44.3304 33.727 44.3304 34.1921V43.5224C44.3304 44.4527 43.9608 45.345 43.3029 46.0028C42.6451 46.6607 41.7528 47.0303 40.8225 47.0303H22.1618C21.2315 47.0303 20.3392 46.6607 19.6814 46.0028C19.0235 45.345 18.6539 44.4527 18.6539 43.5224V24.8617C18.6539 23.9314 19.0235 23.0391 19.6814 22.3813Z" fill="#0F4C81"/>
</svg>