<svg width="151" height="151" viewBox="0 0 151 151" fill="none" xmlns="http://www.w3.org/2000/svg">
<path d="M99.6695 51.4902V60.8867C99.6695 60.8867 93.3453 60.9182 93.3136 60.8867V51.4902H83.7797C83.7797 51.4902 83.8114 45.2363 83.7797 45.2049H93.3136V35.7769H99.6695V45.2049H109.203V51.4902H99.6695ZM90.1356 64.0608V54.6329H80.6017V45.2049H55.178C51.6822 45.2049 48.822 48.0333 48.822 51.4902V89.2021C48.822 92.659 51.6822 95.4874 55.178 95.4874H93.3136C96.8093 95.4874 99.6695 92.659 99.6695 89.2021V64.0608H90.1356ZM55.178 89.2021L64.7119 76.6314L71.0678 86.0594L80.6017 73.4888L93.3136 89.2021H55.178Z" fill="#D9D9D9"/>
<path d="M20.0865 115.559H21.9475L26.0661 126.39H23.9L22.8932 123.69H19.1102L18.1187 126.39H15.9526L20.0865 115.559ZM22.5119 122.21L21.017 117.954L19.461 122.21H22.5119ZM30.9899 126.542C30.4408 126.542 29.9323 126.436 29.4645 126.222C28.9967 126.008 28.595 125.714 28.2594 125.337C27.9238 124.961 27.6594 124.524 27.4662 124.025C27.2831 123.517 27.1916 122.973 27.1916 122.393C27.1916 121.814 27.2781 121.275 27.4509 120.776C27.634 120.278 27.8831 119.841 28.1984 119.464C28.5137 119.088 28.8899 118.793 29.3272 118.58C29.7645 118.366 30.2425 118.259 30.7611 118.259C31.3509 118.259 31.8798 118.402 32.3475 118.686C32.8255 118.971 33.1967 119.342 33.4611 119.8V115.254H35.5052V124.041C35.5052 124.254 35.5408 124.407 35.612 124.498C35.6831 124.59 35.8052 124.641 35.9781 124.651V126.39C35.6221 126.461 35.3323 126.497 35.1086 126.497C34.7425 126.497 34.4425 126.405 34.2086 126.222C33.9747 126.039 33.8425 125.8 33.812 125.505L33.7662 125.002C33.4713 125.51 33.0696 125.897 32.5611 126.161C32.0628 126.415 31.5391 126.542 30.9899 126.542ZM31.5238 124.803C31.717 124.803 31.9153 124.773 32.1187 124.712C32.3221 124.641 32.5103 124.544 32.6831 124.422C32.856 124.3 33.0086 124.158 33.1408 123.995C33.2831 123.832 33.3899 123.654 33.4611 123.461V121.554C33.3798 121.331 33.2628 121.127 33.1103 120.944C32.9679 120.751 32.8001 120.588 32.6069 120.456C32.4238 120.314 32.2255 120.202 32.012 120.12C31.8086 120.039 31.6052 119.998 31.4018 119.998C31.0967 119.998 30.812 120.064 30.5475 120.197C30.2933 120.329 30.0747 120.512 29.8916 120.746C29.7086 120.969 29.5662 121.229 29.4645 121.524C29.3628 121.819 29.312 122.124 29.312 122.439C29.312 122.775 29.3679 123.085 29.4798 123.369C29.5916 123.654 29.7442 123.903 29.9374 124.117C30.1306 124.331 30.3594 124.498 30.6238 124.62C30.8984 124.742 31.1984 124.803 31.5238 124.803ZM38.359 126.39V118.397H40.4031V126.39H38.359ZM38.359 117.283V115.254H40.4031V117.283H38.359ZM42.5912 122.393C42.5912 121.834 42.6878 121.305 42.881 120.807C43.0742 120.308 43.3539 119.871 43.72 119.495C44.0861 119.119 44.5284 118.819 45.0471 118.595C45.5657 118.371 46.1505 118.259 46.8013 118.259C47.6759 118.259 48.4183 118.447 49.0284 118.824C49.6488 119.2 50.1115 119.693 50.4166 120.303L48.4183 120.914C48.2454 120.619 48.0166 120.395 47.7318 120.242C47.4471 120.08 47.1318 119.998 46.7861 119.998C46.4912 119.998 46.2166 120.059 45.9623 120.181C45.7081 120.293 45.4844 120.456 45.2912 120.669C45.1081 120.873 44.9606 121.122 44.8488 121.417C44.7471 121.712 44.6962 122.037 44.6962 122.393C44.6962 122.749 44.7522 123.075 44.864 123.369C44.9759 123.664 45.1234 123.919 45.3064 124.132C45.4996 124.346 45.7234 124.514 45.9776 124.636C46.2318 124.747 46.5013 124.803 46.7861 124.803C47.1522 124.803 47.4878 124.712 47.7928 124.529C48.1081 124.346 48.3267 124.122 48.4488 123.858L50.4471 124.468C50.1725 125.078 49.72 125.576 49.0895 125.963C48.459 126.349 47.7013 126.542 46.8166 126.542C46.1657 126.542 45.581 126.431 45.0623 126.207C44.5437 125.983 44.1013 125.683 43.7352 125.307C43.3691 124.92 43.0844 124.478 42.881 123.98C42.6878 123.471 42.5912 122.942 42.5912 122.393ZM52.5523 126.39V118.397H54.5964V126.39H52.5523ZM52.5523 117.283V115.254H54.5964V117.283H52.5523ZM60.9793 126.542C60.3285 126.542 59.7437 126.431 59.2251 126.207C58.7064 125.983 58.2641 125.683 57.898 125.307C57.542 124.92 57.2675 124.478 57.0742 123.98C56.881 123.481 56.7844 122.958 56.7844 122.408C56.7844 121.849 56.881 121.32 57.0742 120.822C57.2675 120.324 57.542 119.886 57.898 119.51C58.2641 119.124 58.7064 118.819 59.2251 118.595C59.7437 118.371 60.3285 118.259 60.9793 118.259C61.6302 118.259 62.2098 118.371 62.7183 118.595C63.237 118.819 63.6742 119.124 64.0302 119.51C64.3963 119.886 64.6759 120.324 64.8692 120.822C65.0624 121.32 65.159 121.849 65.159 122.408C65.159 122.958 65.0624 123.481 64.8692 123.98C64.6759 124.478 64.4014 124.92 64.0454 125.307C63.6895 125.683 63.2522 125.983 62.7336 126.207C62.2149 126.431 61.6302 126.542 60.9793 126.542ZM58.8895 122.408C58.8895 122.764 58.9403 123.09 59.042 123.385C59.1539 123.669 59.3014 123.919 59.4844 124.132C59.6776 124.346 59.9014 124.514 60.1556 124.636C60.4098 124.747 60.6844 124.803 60.9793 124.803C61.2742 124.803 61.5488 124.747 61.8031 124.636C62.0573 124.514 62.2759 124.346 62.459 124.132C62.6522 123.919 62.7997 123.664 62.9014 123.369C63.0132 123.075 63.0692 122.749 63.0692 122.393C63.0692 122.047 63.0132 121.727 62.9014 121.432C62.7997 121.137 62.6522 120.883 62.459 120.669C62.2759 120.456 62.0573 120.293 61.8031 120.181C61.5488 120.059 61.2742 119.998 60.9793 119.998C60.6844 119.998 60.4098 120.059 60.1556 120.181C59.9014 120.303 59.6776 120.471 59.4844 120.685C59.3014 120.898 59.1539 121.153 59.042 121.447C58.9403 121.742 58.8895 122.063 58.8895 122.408ZM74.8149 126.39H72.7709V121.905C72.7709 121.264 72.659 120.797 72.4353 120.502C72.2115 120.207 71.9014 120.059 71.5048 120.059C71.3014 120.059 71.0929 120.1 70.8793 120.181C70.6658 120.263 70.4624 120.38 70.2692 120.532C70.0861 120.675 69.9183 120.847 69.7658 121.051C69.6132 121.254 69.5014 121.478 69.4302 121.722V126.39H67.3861V118.397H69.2319V119.876C69.5268 119.368 69.9539 118.971 70.5132 118.686C71.0726 118.402 71.7031 118.259 72.4048 118.259C72.9031 118.259 73.3098 118.351 73.6251 118.534C73.9404 118.717 74.1844 118.956 74.3573 119.251C74.5302 119.546 74.6471 119.881 74.7082 120.258C74.7793 120.634 74.8149 121.015 74.8149 121.402V126.39ZM79.6211 126.542C79.2347 126.542 78.8736 126.481 78.5381 126.359C78.2025 126.227 77.9126 126.049 77.6686 125.825C77.4245 125.592 77.2313 125.322 77.0889 125.017C76.9567 124.712 76.8906 124.376 76.8906 124.01C76.8906 123.634 76.972 123.288 77.1347 122.973C77.3075 122.647 77.5414 122.373 77.8364 122.149C78.1414 121.925 78.5025 121.753 78.9194 121.631C79.3364 121.498 79.794 121.432 80.2923 121.432C80.6482 121.432 80.994 121.463 81.3296 121.524C81.6753 121.585 81.9804 121.671 82.2448 121.783V121.325C82.2448 120.797 82.0923 120.39 81.7872 120.105C81.4923 119.82 81.0499 119.678 80.4601 119.678C80.033 119.678 79.616 119.754 79.2092 119.907C78.8025 120.059 78.3855 120.283 77.9584 120.578L77.333 119.281C78.3601 118.6 79.4686 118.259 80.6584 118.259C81.8075 118.259 82.6974 118.544 83.3279 119.114C83.9686 119.673 84.2889 120.486 84.2889 121.554V124.041C84.2889 124.254 84.3245 124.407 84.3957 124.498C84.477 124.59 84.6042 124.641 84.777 124.651V126.39C84.4313 126.461 84.1313 126.497 83.877 126.497C83.4906 126.497 83.1906 126.41 82.977 126.237C82.7737 126.064 82.6465 125.836 82.5957 125.551L82.5499 125.108C82.194 125.576 81.7618 125.932 81.2533 126.176C80.7448 126.42 80.2008 126.542 79.6211 126.542ZM80.2008 125.047C80.5465 125.047 80.872 124.986 81.177 124.864C81.4923 124.742 81.7364 124.58 81.9092 124.376C82.133 124.203 82.2448 124.01 82.2448 123.797V122.881C82.0008 122.79 81.7364 122.719 81.4516 122.668C81.1669 122.607 80.8923 122.576 80.6279 122.576C80.0991 122.576 79.6669 122.698 79.3313 122.942C78.9957 123.176 78.8279 123.476 78.8279 123.842C78.8279 124.188 78.9601 124.478 79.2245 124.712C79.4889 124.936 79.8143 125.047 80.2008 125.047ZM91.8058 120.166C91.1855 120.176 90.6312 120.298 90.1431 120.532C89.6549 120.756 89.3041 121.097 89.0905 121.554V126.39H87.0465V118.397H88.9227V120.105C89.0651 119.831 89.2329 119.586 89.4261 119.373C89.6194 119.149 89.8278 118.956 90.0516 118.793C90.2753 118.631 90.499 118.508 90.7227 118.427C90.9566 118.336 91.1804 118.29 91.3939 118.29C91.5058 118.29 91.5872 118.29 91.638 118.29C91.699 118.29 91.755 118.295 91.8058 118.305V120.166ZM98.4208 126.39V120.38H97.3683V118.824H98.4208V118.336C98.4208 117.339 98.6598 116.551 99.1378 115.971C99.6157 115.392 100.267 115.102 101.09 115.102C101.741 115.102 102.397 115.259 103.058 115.575L102.646 117.115C102.494 117.034 102.311 116.968 102.097 116.917C101.894 116.856 101.706 116.825 101.533 116.825C100.821 116.825 100.465 117.303 100.465 118.259V118.824H102.417V120.38H100.465V126.39H98.4208ZM107.715 126.542C107.064 126.542 106.48 126.431 105.961 126.207C105.442 125.983 105 125.683 104.634 125.307C104.278 124.92 104.003 124.478 103.81 123.98C103.617 123.481 103.52 122.958 103.52 122.408C103.52 121.849 103.617 121.32 103.81 120.822C104.003 120.324 104.278 119.886 104.634 119.51C105 119.124 105.442 118.819 105.961 118.595C106.48 118.371 107.064 118.259 107.715 118.259C108.366 118.259 108.946 118.371 109.454 118.595C109.973 118.819 110.41 119.124 110.766 119.51C111.132 119.886 111.412 120.324 111.605 120.822C111.798 121.32 111.895 121.849 111.895 122.408C111.895 122.958 111.798 123.481 111.605 123.98C111.412 124.478 111.137 124.92 110.781 125.307C110.425 125.683 109.988 125.983 109.47 126.207C108.951 126.431 108.366 126.542 107.715 126.542ZM105.625 122.408C105.625 122.764 105.676 123.09 105.778 123.385C105.89 123.669 106.037 123.919 106.22 124.132C106.414 124.346 106.637 124.514 106.892 124.636C107.146 124.747 107.42 124.803 107.715 124.803C108.01 124.803 108.285 124.747 108.539 124.636C108.793 124.514 109.012 124.346 109.195 124.132C109.388 123.919 109.536 123.664 109.637 123.369C109.749 123.075 109.805 122.749 109.805 122.393C109.805 122.047 109.749 121.727 109.637 121.432C109.536 121.137 109.388 120.883 109.195 120.669C109.012 120.456 108.793 120.293 108.539 120.181C108.285 120.059 108.01 119.998 107.715 119.998C107.42 119.998 107.146 120.059 106.892 120.181C106.637 120.303 106.414 120.471 106.22 120.685C106.037 120.898 105.89 121.153 105.778 121.447C105.676 121.742 105.625 122.063 105.625 122.408ZM118.808 125.978C118.533 126.1 118.197 126.222 117.801 126.344C117.404 126.466 116.987 126.527 116.55 126.527C116.265 126.527 115.996 126.492 115.742 126.42C115.497 126.349 115.279 126.237 115.086 126.085C114.903 125.922 114.755 125.719 114.643 125.475C114.531 125.22 114.475 124.915 114.475 124.559V119.968H113.423V118.397H114.475V115.803H116.52V118.397H118.197V119.968H116.52V123.873C116.52 124.158 116.591 124.361 116.733 124.483C116.886 124.595 117.069 124.651 117.282 124.651C117.496 124.651 117.704 124.615 117.908 124.544C118.111 124.473 118.274 124.412 118.396 124.361L118.808 125.978ZM124.218 126.542C123.567 126.542 122.982 126.431 122.463 126.207C121.945 125.983 121.502 125.683 121.136 125.307C120.78 124.92 120.506 124.478 120.312 123.98C120.119 123.481 120.023 122.958 120.023 122.408C120.023 121.849 120.119 121.32 120.312 120.822C120.506 120.324 120.78 119.886 121.136 119.51C121.502 119.124 121.945 118.819 122.463 118.595C122.982 118.371 123.567 118.259 124.218 118.259C124.868 118.259 125.448 118.371 125.957 118.595C126.475 118.819 126.912 119.124 127.268 119.51C127.634 119.886 127.914 120.324 128.107 120.822C128.301 121.32 128.397 121.849 128.397 122.408C128.397 122.958 128.301 123.481 128.107 123.98C127.914 124.478 127.64 124.92 127.284 125.307C126.928 125.683 126.49 125.983 125.972 126.207C125.453 126.431 124.868 126.542 124.218 126.542ZM122.128 122.408C122.128 122.764 122.179 123.09 122.28 123.385C122.392 123.669 122.54 123.919 122.723 124.132C122.916 124.346 123.14 124.514 123.394 124.636C123.648 124.747 123.923 124.803 124.218 124.803C124.512 124.803 124.787 124.747 125.041 124.636C125.296 124.514 125.514 124.346 125.697 124.132C125.89 123.919 126.038 123.664 126.14 123.369C126.251 123.075 126.307 122.749 126.307 122.393C126.307 122.047 126.251 121.727 126.14 121.432C126.038 121.137 125.89 120.883 125.697 120.669C125.514 120.456 125.296 120.293 125.041 120.181C124.787 120.059 124.512 119.998 124.218 119.998C123.923 119.998 123.648 120.059 123.394 120.181C123.14 120.303 122.916 120.471 122.723 120.685C122.54 120.898 122.392 121.153 122.28 121.447C122.179 121.742 122.128 122.063 122.128 122.408ZM133.645 126.542C132.973 126.542 132.318 126.436 131.677 126.222C131.036 126.008 130.487 125.703 130.029 125.307L130.792 124.025C131.28 124.371 131.753 124.636 132.211 124.819C132.679 124.992 133.141 125.078 133.599 125.078C134.006 125.078 134.326 125.002 134.56 124.849C134.794 124.697 134.911 124.478 134.911 124.193C134.911 123.908 134.773 123.7 134.499 123.568C134.224 123.436 133.777 123.283 133.157 123.11C132.638 122.968 132.196 122.831 131.829 122.698C131.463 122.566 131.168 122.419 130.945 122.256C130.721 122.083 130.558 121.89 130.457 121.676C130.355 121.453 130.304 121.188 130.304 120.883C130.304 120.476 130.38 120.11 130.533 119.785C130.696 119.459 130.919 119.185 131.204 118.961C131.489 118.727 131.819 118.549 132.196 118.427C132.582 118.305 132.999 118.244 133.446 118.244C134.046 118.244 134.606 118.331 135.124 118.503C135.653 118.676 136.136 118.956 136.573 119.342L135.75 120.578C135.343 120.273 134.946 120.049 134.56 119.907C134.184 119.764 133.807 119.693 133.431 119.693C133.085 119.693 132.796 119.764 132.562 119.907C132.328 120.049 132.211 120.278 132.211 120.593C132.211 120.736 132.236 120.853 132.287 120.944C132.348 121.036 132.44 121.117 132.562 121.188C132.684 121.259 132.841 121.331 133.035 121.402C133.238 121.463 133.487 121.529 133.782 121.6C134.331 121.742 134.799 121.885 135.185 122.027C135.582 122.169 135.902 122.332 136.146 122.515C136.401 122.698 136.584 122.912 136.696 123.156C136.818 123.39 136.879 123.675 136.879 124.01C136.879 124.793 136.589 125.414 136.009 125.871C135.429 126.319 134.641 126.542 133.645 126.542Z" fill="#D9D9D9"/>
<rect x="0.423797" y="0.423797" width="149.176" height="149.176" stroke="#D9D9D9" stroke-width="0.847594" stroke-dasharray="8.48 8.48"/>
</svg>
